<svg width="154" height="120" viewBox="0 0 154 120" fill="none" xmlns="http://www.w3.org/2000/svg">
<g clip-path="url(#clip0_501_10)">
<path d="M106.477 10.394L106.736 10.4108L106.899 10.209C110.301 5.99108 114.918 2.94051 120.111 1.4767C125.305 0.0129022 130.821 0.207614 135.9 2.03409C140.979 3.86059 145.372 7.22929 148.474 11.677C151.576 16.1247 153.233 21.4327 153.218 26.8698V26.8706C153.209 33.2735 150.793 39.4347 146.458 44.1138L146.281 44.3049L146.336 44.5594C148.078 52.5965 148.248 60.8984 146.839 69.0012C141.168 96.4488 112.625 117.258 77.2734 119.493L77.271 119.494L76.7553 119.529L76.2397 119.494L76.2373 119.493C40.8864 117.258 12.3425 96.4041 6.67169 69.0007C5.25531 60.8604 5.43353 52.5193 7.1963 44.4479L7.25134 44.1958L7.07785 44.0049C2.82761 39.3278 0.470079 33.2148 0.471195 26.8713L0.471176 26.8683C0.438613 21.4179 2.08809 16.0924 5.1908 11.629C8.29347 7.16575 12.6957 3.78552 17.7877 1.95536C22.8797 0.125217 28.4101 -0.0646052 33.6137 1.41231C38.8173 2.88924 43.4373 5.95997 46.8339 10.2002L47.0016 10.4095L47.2687 10.3856C48.2452 10.2981 49.2326 10.2979 50.2389 10.2979C59.4685 10.3282 68.5353 12.7517 76.5669 17.3354L76.8149 17.4769L77.0627 17.3353C85.091 12.7501 94.1557 10.3265 103.383 10.2979C104.413 10.2979 105.449 10.3275 106.477 10.394Z" fill="#FFDCE4" stroke="white"/>
<path d="M144.894 26.8712C144.877 22.7861 143.478 18.829 140.93 15.6525C138.381 12.4759 134.834 10.2696 130.873 9.39764C126.913 8.52568 122.776 9.04009 119.145 10.8559C115.514 12.6717 112.605 15.6806 110.899 19.3862C99.8916 17.3129 87.473 19.8353 76.7851 27.3877C66.1342 19.8577 53.7602 17.3278 42.7751 19.3637C41.0624 15.6633 38.1498 12.6613 34.5174 10.8524C30.8849 9.04358 26.7494 8.53573 22.7923 9.41263C18.8351 10.2895 15.2924 12.499 12.748 15.6766C10.2036 18.8542 8.80935 22.8104 8.79492 26.8935C8.79492 33.0462 12.0481 38.2036 16.7199 41.4521C12.3823 53.7125 14.6031 66.2348 14.8259 67.3127C19.624 90.5163 44.5354 109.102 76.7851 111.138C109.02 109.102 133.976 90.5462 138.744 67.3127C138.967 66.2423 141.18 53.7573 136.872 41.5193C141.596 38.2558 144.894 33.0688 144.894 26.8712Z" fill="#CA3F62"/>
<path d="M79.4874 66.7889L76.8061 68.5929L74.2585 66.8713C72.8038 65.8906 71.0221 65.5325 69.3053 65.8757C67.5886 66.2189 66.0774 67.2354 65.1043 68.7014C64.1312 70.1675 63.7758 71.9629 64.1164 73.693C64.457 75.4231 65.4656 76.946 66.9203 77.9267L74.8304 83.2559C74.5208 84.2079 74.051 85.0992 73.4415 85.8907C72.829 86.6608 72.07 87.2997 71.2091 87.7702C70.3482 88.2406 69.4026 88.5332 68.428 88.6303C68.2552 88.6398 68.0861 88.6838 67.9305 88.7601C67.7748 88.8363 67.6358 88.9431 67.5217 89.0742C67.4075 89.2053 67.3205 89.358 67.2657 89.5234C67.2109 89.6888 67.1894 89.8635 67.2025 90.0374C67.2233 90.375 67.3707 90.6921 67.6148 90.9243C67.8589 91.1564 68.1815 91.2861 68.5172 91.2874H68.6063C69.935 91.1686 71.2264 90.7822 72.4041 90.1509C73.5817 89.5196 74.6215 88.6563 75.4618 87.6123C76.0462 86.7903 76.5206 85.8944 76.873 84.9476C77.2253 85.8944 77.6998 86.7903 78.2842 87.6123C79.1253 88.6571 80.1663 89.5208 81.3452 90.1522C82.5242 90.7835 83.8171 91.1696 85.1471 91.2874H85.2287C85.5644 91.2861 85.887 91.1564 86.1311 90.9243C86.3753 90.6921 86.5227 90.375 86.5434 90.0374C86.5565 89.8635 86.5351 89.6888 86.4803 89.5234C86.4255 89.358 86.3384 89.2053 86.2243 89.0742C86.1101 88.9431 85.9711 88.8363 85.8155 88.7601C85.6599 88.6838 85.4907 88.6398 85.3179 88.6303C84.3433 88.5332 83.3978 88.2406 82.5369 87.7702C81.6759 87.2997 80.9169 86.6608 80.3044 85.8907C79.6794 85.0826 79.1993 84.1708 78.8858 83.1962L86.8256 77.8368C88.2794 76.8561 89.287 75.3337 89.6269 73.6043C89.9668 71.875 89.611 70.0802 88.6379 68.6152C87.6648 67.1501 86.1541 66.1347 84.438 65.7922C82.7219 65.4497 80.9412 65.8082 79.4874 66.7889V66.7889Z" fill="#FFFAFB"/>
<path d="M106.101 50.4341C103.396 50.4405 100.766 51.3271 98.6019 52.9617C96.4378 54.5964 94.8555 56.8916 94.0906 59.5058C94.0418 59.6729 94.0262 59.8482 94.0446 60.0214C94.063 60.1945 94.1151 60.3624 94.1978 60.5153C94.2806 60.6682 94.3924 60.8032 94.5269 60.9126C94.6615 61.0219 94.816 61.1034 94.9819 61.1525C95.1477 61.2017 95.3215 61.2175 95.4933 61.1989C95.6652 61.1804 95.8318 61.1279 95.9835 61.0445C96.1352 60.9611 96.2691 60.8484 96.3777 60.7128C96.4862 60.5773 96.5671 60.4214 96.6159 60.2543C97.2227 58.1919 98.4748 56.3823 100.185 55.0954C101.896 53.8085 103.973 53.1132 106.108 53.1132C108.243 53.1132 110.32 53.8085 112.031 55.0954C113.741 56.3823 114.993 58.1919 115.6 60.2543C115.677 60.5324 115.842 60.7776 116.07 60.952C116.298 61.1265 116.577 61.2206 116.863 61.2199C116.987 61.222 117.11 61.2017 117.227 61.16C117.393 61.1118 117.549 61.0311 117.684 60.9221C117.82 60.8131 117.933 60.6782 118.016 60.5252C118.1 60.3721 118.152 60.2039 118.171 60.0303C118.19 59.8567 118.174 59.6809 118.126 59.5133C117.358 56.8971 115.773 54.6005 113.607 52.9647C111.44 51.3289 108.808 50.4414 106.101 50.4341V50.4341Z" fill="#FFFAFB"/>
<path d="M47.5879 50.4341C44.8838 50.4492 42.256 51.3388 40.0913 52.972C37.9265 54.6051 36.3392 56.8954 35.563 59.5058C35.5142 59.6734 35.4987 59.8492 35.5175 60.0228C35.5363 60.1964 35.589 60.3646 35.6725 60.5177C35.756 60.6707 35.8687 60.8056 36.0042 60.9146C36.1396 61.0236 36.2951 61.1043 36.4617 61.1525C36.6274 61.2071 36.8025 61.2268 36.9761 61.2103C37.1496 61.1937 37.3179 61.1412 37.4705 61.0562C37.6231 60.9712 37.7567 60.8556 37.863 60.7163C37.9693 60.5771 38.046 60.4173 38.0883 60.2469C38.6952 58.1844 39.9472 56.3748 41.6578 55.0879C43.3684 53.801 45.4458 53.1057 47.5805 53.1057C49.7151 53.1057 51.7926 53.801 53.5032 55.0879C55.2138 56.3748 56.4658 58.1844 57.0727 60.2469C57.1503 60.5243 57.3155 60.7688 57.5434 60.9431C57.7712 61.1173 58.0493 61.2119 58.3353 61.2125C58.4617 61.2146 58.5874 61.1943 58.7067 61.1525C58.8732 61.1044 59.0285 61.0235 59.1637 60.9144C59.2988 60.8053 59.4111 60.6703 59.4941 60.5171C59.577 60.3639 59.6288 60.1955 59.6467 60.0219C59.6645 59.8483 59.648 59.6729 59.598 59.5058C58.8331 56.8916 57.2507 54.5964 55.0866 52.9617C52.9225 51.3271 50.2924 50.4405 47.5879 50.4341Z" fill="#FFFAFB"/>
</g>
<defs>
<clipPath id="clip0_501_10">
<rect width="153.695" height="120" fill="white"/>
</clipPath>
</defs>
</svg>
